STARTFONT 2.1
COMMENT 
COMMENT  This font is copyrighted by Roar Lauritzsen, who reserves all rights
COMMENT  under national and international copyright laws.
COMMENT 
COMMENT  Produced with bdfedit, a tcl/tk font editing program
COMMENT    written by Thomas A. Fine
COMMENT    fine@head-cfa.harvard.edu
COMMENT    http://hea-www.harvard.edu/~fine/
FONT -misc-nethack-bold-r-normal--24-160-100-100-c-160--custom
SIZE 24 72 72
FONTBOUNDINGBOX 16 16 0 -3
STARTPROPERTIES 12
FOUNDRY "Misc"
FAMILY_NAME "Nethack"
WEIGHT_NAME "Bold"
SLANT "R"
SETWIDTH_NAME "Normal"
SPACING "c"
CHARSET_REGISTRY "ISO-8859"
CHARSET_ENCODING "1"
COPYRIGHT "Designer of this font, Roar Lauritzsen, retains full rights under the law"
FONT_ASCENT 13
FONT_DESCENT 3
_GBDFED_INFO "Edited with gbdfed 1.6."
ENDPROPERTIES
CHARS 191
STARTCHAR C040
ENCODING 32
SWIDTH 666 0
DWIDTH 16 0
BBX 16 16 0 -3
BITMAP
0000
0000
0000
0000
0000
0000
0000
0000
0000
0000
0000
0000
0000
0000
0000
0000
ENDCHAR
STARTCHAR C041
ENCODING 33
SWIDTH 666 0
DWIDTH 16 0
BBX 16 16 0 -3
BITMAP
0000
01C0
01C0
01C0
01C0
01C0
01C0
01C0
0180
0180
0000
01C0
01C0
0000
0000
0000
ENDCHAR
STARTCHAR C042
ENCODING 34
SWIDTH 666 0
DWIDTH 16 0
BBX 16 16 0 -3
BITMAP
0000
0EE0
0EE0
0CC0
0880
0000
0000
0000
0000
0000
0000
0000
0000
0000
0000
0000
ENDCHAR
STARTCHAR C043
ENCODING 35
SWIDTH 666 0
DWIDTH 16 0
BBX 16 16 0 -3
BITMAP
0000
0000
0660
0660
0660
3FFC
3FFC
0660
0660
3FFC
3FFC
0660
0660
0660
0000
0000
ENDCHAR
STARTCHAR C044
ENCODING 36
SWIDTH 666 0
DWIDTH 16 0
BBX 16 16 0 -3
BITMAP
0000
0180
07E0
1DB8
399C
3980
1D80
0FF0
01B8
019C
399C
1DB8
07E0
0180
0000
0000
ENDCHAR
STARTCHAR C045
ENCODING 37
SWIDTH 666 0
DWIDTH 16 0
BBX 16 16 0 -3
BITMAP
0000
0E0C
1B1C
3338
3670
1CE0
01C0
0380
0738
0E6C
1CCC
38D8
3070
0000
0000
0000
ENDCHAR
STARTCHAR C046
ENCODING 38
SWIDTH 666 0
DWIDTH 16 0
BBX 16 16 0 -3
BITMAP
0000
0000
1010
1830
0547
07C5
0921
0FE7
1EF4
1BB4
1BB0
0380
0780
0EC0
1C60
0000
ENDCHAR
STARTCHAR C047
ENCODING 39
SWIDTH 666 0
DWIDTH 16 0
BBX 16 16 0 -3
BITMAP
0000
0780
0780
0380
0300
0200
0000
0000
0000
0000
0000
0000
0000
0000
0000
0000
ENDCHAR
STARTCHAR C050
ENCODING 40
SWIDTH 666 0
DWIDTH 16 0
BBX 16 16 0 -3
BITMAP
0000
01E0
0380
0380
0700
0700
0700
0700
0700
0700
0700
0380
0380
01E0
0000
0000
ENDCHAR
STARTCHAR C051
ENCODING 41
SWIDTH 666 0
DWIDTH 16 0
BBX 16 16 0 -3
BITMAP
0000
0780
01C0
01C0
00E0
00E0
00E0
00E0
00E0
00E0
00E0
01C0
01C0
0780
0000
0000
ENDCHAR
STARTCHAR C052
ENCODING 42
SWIDTH 666 0
DWIDTH 16 0
BBX 16 16 0 -3
BITMAP
0000
0000
0000
0180
0180
1998
1DB8
07E0
07E0
1DB8
1998
0180
0180
0000
0000
0000
ENDCHAR
STARTCHAR C053
ENCODING 43
SWIDTH 666 0
DWIDTH 16 0
BBX 16 16 0 -3
BITMAP
0000
0000
0180
0180
0180
0180
0180
3FFC
3FFC
0180
0180
0180
0180
0180
0000
0000
ENDCHAR
STARTCHAR C054
ENCODING 44
SWIDTH 666 0
DWIDTH 16 0
BBX 16 16 0 -3
BITMAP
0000
0000
0000
0000
0000
0000
0000
0000
0000
0000
03C0
03C0
01C0
0180
0100
0000
ENDCHAR
STARTCHAR C055
ENCODING 45
SWIDTH 666 0
DWIDTH 16 0
BBX 16 16 0 -3
BITMAP
0000
0000
0000
0000
0000
0000
6666
FFFF
FFFF
6666
0000
0000
0000
0000
0000
0000
ENDCHAR
STARTCHAR C056
ENCODING 46
SWIDTH 666 0
DWIDTH 16 0
BBX 16 16 0 -3
BITMAP
0000
0000
0000
0000
0000
0000
0000
0000
0000
0000
03C0
03C0
03C0
0000
0000
0000
ENDCHAR
STARTCHAR C057
ENCODING 47
SWIDTH 666 0
DWIDTH 16 0
BBX 16 16 0 -3
BITMAP
0007
000F
000F
001E
0078
00F0
00F0
01E0
0780
0F00
0F00
1E00
7800
F000
F000
E000
ENDCHAR
STARTCHAR C060
ENCODING 48
SWIDTH 666 0
DWIDTH 16 0
BBX 16 16 0 -3
BITMAP
0000
03E0
0630
0E38
0C18
1C1C
1C1C
1C1C
1C1C
0C18
0E38
0630
03E0
0000
0000
0000
ENDCHAR
STARTCHAR C061
ENCODING 49
SWIDTH 666 0
DWIDTH 16 0
BBX 16 16 0 -3
BITMAP
0000
01C0
03C0
07C0
0DC0
01C0
01C0
01C0
01C0
01C0
01C0
01C0
0FF8
0000
0000
0000
ENDCHAR
STARTCHAR C062
ENCODING 50
SWIDTH 666 0
DWIDTH 16 0
BBX 16 16 0 -3
BITMAP
0000
07E0
1C38
381C
001C
001C
0038
00E0
03C0
0F00
1C00
3800
3FFC
0000
0000
0000
ENDCHAR
STARTCHAR C063
ENCODING 51
SWIDTH 666 0
DWIDTH 16 0
BBX 16 16 0 -3
BITMAP
0000
07E0
1C38
381C
001C
0038
03E0
0038
001C
001C
381C
1C38
07E0
0000
0000
0000
ENDCHAR
STARTCHAR C064
ENCODING 52
SWIDTH 666 0
DWIDTH 16 0
BBX 16 16 0 -3
BITMAP
0000
0070
00F0
01F0
03F0
0770
0E70
1C70
3870
3FFC
0070
0070
0070
0000
0000
0000
ENDCHAR
STARTCHAR C065
ENCODING 53
SWIDTH 666 0
DWIDTH 16 0
BBX 16 16 0 -3
BITMAP
0000
3FF8
3800
3800
3800
3800
3FE0
0038
001C
001C
381C
1C38
07E0
0000
0000
0000
ENDCHAR
STARTCHAR C066
ENCODING 54
SWIDTH 666 0
DWIDTH 16 0
BBX 16 16 0 -3
BITMAP
0000
03E0
0E38
1C1C
1C00
3800
3BE0
3E38
381C
381C
381C
1C38
07E0
0000
0000
0000
ENDCHAR
STARTCHAR C067
ENCODING 55
SWIDTH 666 0
DWIDTH 16 0
BBX 16 16 0 -3
BITMAP
0000
3FFC
001C
001C
0038
0070
00E0
01C0
0380
0700
0E00
0E00
0E00
0000
0000
0000
ENDCHAR
STARTCHAR C070
ENCODING 56
SWIDTH 666 0
DWIDTH 16 0
BBX 16 16 0 -3
BITMAP
0000
07E0
1C38
381C
381C
1C38
07E0
1C38
381C
381C
381C
1C38
07E0
0000
0000
0000
ENDCHAR
STARTCHAR C071
ENCODING 57
SWIDTH 666 0
DWIDTH 16 0
BBX 16 16 0 -3
BITMAP
0000
07E0
1C38
381C
381C
381C
1C7C
07DC
001C
0038
3838
1C70
07C0
0000
0000
0000
ENDCHAR
STARTCHAR C072
ENCODING 58
SWIDTH 666 0
DWIDTH 16 0
BBX 16 16 0 -3
BITMAP
0000
0000
0000
0000
03C0
03C0
03C0
0000
0000
0000
03C0
03C0
03C0
0000
0000
0000
ENDCHAR
STARTCHAR C073
ENCODING 59
SWIDTH 666 0
DWIDTH 16 0
BBX 16 16 0 -3
BITMAP
0000
0000
0000
0000
03C0
03C0
03C0
0000
0000
0000
03C0
03C0
01C0
0180
0100
0000
ENDCHAR
STARTCHAR C074
ENCODING 60
SWIDTH 666 0
DWIDTH 16 0
BBX 16 16 0 -3
BITMAP
0000
0000
0000
0018
0078
01E0
0780
1E00
3800
1E00
0780
01E0
0078
0018
0000
0000
ENDCHAR
STARTCHAR C075
ENCODING 61
SWIDTH 666 0
DWIDTH 16 0
BBX 16 16 0 -3
BITMAP
0000
0000
0000
0000
0000
3FFC
3FFC
0000
0000
0000
3FFC
3FFC
0000
0000
0000
0000
ENDCHAR
STARTCHAR C076
ENCODING 62
SWIDTH 666 0
DWIDTH 16 0
BBX 16 16 0 -3
BITMAP
0000
0000
0000
1800
1E00
0780
01E0
0078
001C
0078
01E0
0780
1E00
1800
0000
0000
ENDCHAR
STARTCHAR C077
ENCODING 63
SWIDTH 666 0
DWIDTH 16 0
BBX 16 16 0 -3
BITMAP
0000
07E0
1C38
381C
381C
001C
0038
00E0
01C0
01C0
0000
01C0
01C0
0000
0000
0000
ENDCHAR
STARTCHAR C100
ENCODING 64
SWIDTH 666 0
DWIDTH 16 0
BBX 16 16 0 -3
BITMAP
0000
0000
0300
0780
0780
0780
0300
0CC0
1FE0
17A0
17A0
17A0
0680
0480
0CC0
0000
ENDCHAR
STARTCHAR C101
ENCODING 65
SWIDTH 666 0
DWIDTH 16 0
BBX 16 16 0 -3
BITMAP
0000
01C0
03E0
03E0
0770
0770
0E38
0E38
1C1C
1FFC
1C1C
380E
380E
0000
0000
0000
ENDCHAR
STARTCHAR C102
ENCODING 66
SWIDTH 666 0
DWIDTH 16 0
BBX 16 16 0 -3
BITMAP
0000
3FE0
3838
381C
381C
3838
3FF0
3838
381C
381C
381C
3838
3FE0
0000
0000
0000
ENDCHAR
STARTCHAR C103
ENCODING 67
SWIDTH 666 0
DWIDTH 16 0
BBX 16 16 0 -3
BITMAP
0000
03E0
0E38
1C1C
1C00
3800
3800
3800
3800
1C00
1C1C
0E38
03E0
0000
0000
0000
ENDCHAR
STARTCHAR C104
ENCODING 68
SWIDTH 666 0
DWIDTH 16 0
BBX 16 16 0 -3
BITMAP
0000
3FE0
3838
381C
381C
380E
380E
380E
380E
381C
381C
3838
3FE0
0000
0000
0000
ENDCHAR
STARTCHAR C105
ENCODING 69
SWIDTH 666 0
DWIDTH 16 0
BBX 16 16 0 -3
BITMAP
0000
3FFC
3800
3800
3800
3800
3FF8
3800
3800
3800
3800
3800
3FFC
0000
0000
0000
ENDCHAR
STARTCHAR C106
ENCODING 70
SWIDTH 666 0
DWIDTH 16 0
BBX 16 16 0 -3
BITMAP
0000
3FFC
3800
3800
3800
3800
3800
3FF8
3800
3800
3800
3800
3800
0000
0000
0000
ENDCHAR
STARTCHAR C107
ENCODING 71
SWIDTH 666 0
DWIDTH 16 0
BBX 16 16 0 -3
BITMAP
0000
03E0
0E38
1C1C
1C00
3800
3800
38FC
381C
1C1C
1C1C
0E3C
03DC
0000
0000
0000
ENDCHAR
STARTCHAR C110
ENCODING 72
SWIDTH 666 0
DWIDTH 16 0
BBX 16 16 0 -3
BITMAP
0000
380E
380E
380E
380E
380E
3FFE
380E
380E
380E
380E
380E
380E
0000
0000
0000
ENDCHAR
STARTCHAR C111
ENCODING 73
SWIDTH 666 0
DWIDTH 16 0
BBX 16 16 0 -3
BITMAP
0000
0FF8
01C0
01C0
01C0
01C0
01C0
01C0
01C0
01C0
01C0
01C0
0FF8
0000
0000
0000
ENDCHAR
STARTCHAR C112
ENCODING 74
SWIDTH 666 0
DWIDTH 16 0
BBX 16 16 0 -3
BITMAP
0000
07FC
001C
001C
001C
001C
001C
001C
001C
0038
0038
0070
0FC0
0000
0000
0000
ENDCHAR
STARTCHAR C113
ENCODING 75
SWIDTH 666 0
DWIDTH 16 0
BBX 16 16 0 -3
BITMAP
0000
381E
383C
3870
38E0
39C0
3B80
3F00
3BC0
38E0
3870
383C
381E
0000
0000
0000
ENDCHAR
STARTCHAR C114
ENCODING 76
SWIDTH 666 0
DWIDTH 16 0
BBX 16 16 0 -3
BITMAP
0000
3800
3800
3800
3800
3800
3800
3800
3800
3800
3800
3800
3FF8
0000
0000
0000
ENDCHAR
STARTCHAR C115
ENCODING 77
SWIDTH 666 0
DWIDTH 16 0
BBX 16 16 0 -3
BITMAP
0000
3006
380E
3C1E
3E3E
3F7E
3BEE
39CE
388E
380E
380E
380E
380E
0000
0000
0000
ENDCHAR
STARTCHAR C116
ENCODING 78
SWIDTH 666 0
DWIDTH 16 0
BBX 16 16 0 -3
BITMAP
0000
300E
380E
3C0E
3E0E
3F0E
3B8E
39CE
38EE
387E
383E
381E
380E
0000
0000
0000
ENDCHAR
STARTCHAR C117
ENCODING 79
SWIDTH 666 0
DWIDTH 16 0
BBX 16 16 0 -3
BITMAP
0000
03E0
0E38
1C1C
1C1C
380E
380E
380E
380E
1C1C
1C1C
0E38
03E0
0000
0000
0000
ENDCHAR
STARTCHAR C120
ENCODING 80
SWIDTH 666 0
DWIDTH 16 0
BBX 16 16 0 -3
BITMAP
0000
3FE0
3838
381C
381C
381C
3838
3FF0
3800
3800
3800
3800
3800
0000
0000
0000
ENDCHAR
STARTCHAR C121
ENCODING 81
SWIDTH 666 0
DWIDTH 16 0
BBX 16 16 0 -3
BITMAP
0000
03E0
0E38
1C1C
1C1C
380E
380E
380E
380E
1C1C
1F9C
0EF8
03E0
0060
0078
0038
ENDCHAR
STARTCHAR C122
ENCODING 82
SWIDTH 666 0
DWIDTH 16 0
BBX 16 16 0 -3
BITMAP
0000
3FE0
3838
381C
381C
381C
3838
3FF0
3870
3838
3838
381C
381C
0000
0000
0000
ENDCHAR
STARTCHAR C123
ENCODING 83
SWIDTH 666 0
DWIDTH 16 0
BBX 16 16 0 -3
BITMAP
0000
07E0
1C38
381C
3800
1C00
0FE0
0078
001C
001C
381C
1C38
07E0
0000
0000
0000
ENDCHAR
STARTCHAR C124
ENCODING 84
SWIDTH 666 0
DWIDTH 16 0
BBX 16 16 0 -3
BITMAP
0000
3FFE
01C0
01C0
01C0
01C0
01C0
01C0
01C0
01C0
01C0
01C0
01C0
0000
0000
0000
ENDCHAR
STARTCHAR C125
ENCODING 85
SWIDTH 666 0
DWIDTH 16 0
BBX 16 16 0 -3
BITMAP
0000
380E
380E
380E
380E
380E
380E
380E
380E
1C1C
1C1C
0E38
03E0
0000
0000
0000
ENDCHAR
STARTCHAR C126
ENCODING 86
SWIDTH 666 0
DWIDTH 16 0
BBX 16 16 0 -3
BITMAP
0000
380E
380E
1C1C
1C1C
1C1C
0E38
0E38
0770
0770
0360
03E0
01C0
0000
0000
0000
ENDCHAR
STARTCHAR C127
ENCODING 87
SWIDTH 666 0
DWIDTH 16 0
BBX 16 16 0 -3
BITMAP
0000
380E
380E
380E
388E
388E
39CE
1DDC
1DDC
1F7C
1F7C
0F78
0E38
0000
0000
0000
ENDCHAR
STARTCHAR C130
ENCODING 88
SWIDTH 666 0
DWIDTH 16 0
BBX 16 16 0 -3
BITMAP
0000
381C
381C
381C
1C38
0E70
07E0
03C0
07E0
0E70
1C38
381C
381C
0000
0000
0000
ENDCHAR
STARTCHAR C131
ENCODING 89
SWIDTH 666 0
DWIDTH 16 0
BBX 16 16 0 -3
BITMAP
0000
380E
380E
380E
1C1C
0E38
0770
03E0
01C0
01C0
01C0
01C0
01C0
0000
0000
0000
ENDCHAR
STARTCHAR C132
ENCODING 90
SWIDTH 666 0
DWIDTH 16 0
BBX 16 16 0 -3
BITMAP
0000
3FFE
000E
001C
0038
0070
00E0
01C0
0380
0700
0E00
1C00
3FFE
0000
0000
0000
ENDCHAR
STARTCHAR C133
ENCODING 91
SWIDTH 666 0
DWIDTH 16 0
BBX 16 16 0 -3
BITMAP
0000
07E0
0700
0700
0700
0700
0700
0700
0700
0700
0700
0700
0700
07E0
0000
0000
ENDCHAR
STARTCHAR C134
ENCODING 92
SWIDTH 666 0
DWIDTH 16 0
BBX 16 16 0 -3
BITMAP
E000
F000
F000
7800
1E00
0F00
0F00
0780
01E0
00F0
00F0
0078
001E
000F
000F
0007
ENDCHAR
STARTCHAR C135
ENCODING 93
SWIDTH 666 0
DWIDTH 16 0
BBX 16 16 0 -3
BITMAP
0000
07E0
00E0
00E0
00E0
00E0
00E0
00E0
00E0
00E0
00E0
00E0
00E0
07E0
0000
0000
ENDCHAR
STARTCHAR C136
ENCODING 94
SWIDTH 666 0
DWIDTH 16 0
BBX 16 16 0 -3
BITMAP
0000
0000
0080
01C0
03E0
0770
0E38
1C1C
0000
0000
0000
0000
0000
0000
0000
0000
ENDCHAR
STARTCHAR C137
ENCODING 95
SWIDTH 666 0
DWIDTH 16 0
BBX 16 16 0 -3
BITMAP
0000
0000
0000
0000
0000
0000
0000
0000
0000
0000
0000
0000
0000
0000
7FFE
7FFE
ENDCHAR
STARTCHAR C140
ENCODING 96
SWIDTH 666 0
DWIDTH 16 0
BBX 16 16 0 -3
BITMAP
0000
01E0
01E0
01C0
00C0
0040
0000
0000
0000
0000
0000
0000
0000
0000
0000
0000
ENDCHAR
STARTCHAR C141
ENCODING 97
SWIDTH 666 0
DWIDTH 16 0
BBX 16 16 0 -3
BITMAP
0000
0000
0000
0000
1FF0
181C
000E
07FE
1C0E
380E
381E
1C3E
07EE
0000
0000
0000
ENDCHAR
STARTCHAR C142
ENCODING 98
SWIDTH 666 0
DWIDTH 16 0
BBX 16 16 0 -3
BITMAP
0000
3800
3800
3800
3BE0
3E38
381C
380E
380E
380E
381C
3E38
3BE0
0000
0000
0000
ENDCHAR
STARTCHAR C143
ENCODING 99
SWIDTH 666 0
DWIDTH 16 0
BBX 16 16 0 -3
BITMAP
0000
0000
0000
0000
03F0
0E1C
1C0C
3800
3800
3800
1C00
0E1C
03F0
0000
0000
0000
ENDCHAR
STARTCHAR C144
ENCODING 100
SWIDTH 666 0
DWIDTH 16 0
BBX 16 16 0 -3
BITMAP
0000
000E
000E
000E
03EE
0E3E
1C1E
380E
380E
380E
1C1E
0E3E
03EE
0000
0000
0000
ENDCHAR
STARTCHAR C145
ENCODING 101
SWIDTH 666 0
DWIDTH 16 0
BBX 16 16 0 -3
BITMAP
0000
0000
0000
0000
03F0
0E1C
1C0E
380E
3FFE
3800
1C00
0E0E
03F8
0000
0000
0000
ENDCHAR
STARTCHAR C146
ENCODING 102
SWIDTH 666 0
DWIDTH 16 0
BBX 16 16 0 -3
BITMAP
0000
0078
01C0
0380
0380
0FF8
0380
0380
0380
0380
0380
0380
0380
0000
0000
0000
ENDCHAR
STARTCHAR C147
ENCODING 103
SWIDTH 666 0
DWIDTH 16 0
BBX 16 16 0 -3
BITMAP
0000
0000
0000
0000
03EE
0E3E
1C1E
380E
380E
380E
1C1E
0E3E
03EE
000E
381C
0FF0
ENDCHAR
STARTCHAR C150
ENCODING 104
SWIDTH 666 0
DWIDTH 16 0
BBX 16 16 0 -3
BITMAP
0000
3800
3800
3800
3BE0
3E38
381C
380E
380E
380E
380E
380E
380E
0000
0000
0000
ENDCHAR
STARTCHAR C151
ENCODING 105
SWIDTH 666 0
DWIDTH 16 0
BBX 16 16 0 -3
BITMAP
0000
00E0
00E0
0000
0FE0
00E0
00E0
00E0
00E0
00E0
00E0
00E0
00E0
0000
0000
0000
ENDCHAR
STARTCHAR C152
ENCODING 106
SWIDTH 666 0
DWIDTH 16 0
BBX 16 16 0 -3
BITMAP
0000
00E0
00E0
0000
0FE0
00E0
00E0
00E0
00E0
00E0
00E0
00E0
00E0
00E0
01C0
0F00
ENDCHAR
STARTCHAR C153
ENCODING 107
SWIDTH 666 0
DWIDTH 16 0
BBX 16 16 0 -3
BITMAP
0000
3800
3800
3800
381E
383C
38F0
3BC0
3F00
3BC0
38F0
383C
381E
0000
0000
0000
ENDCHAR
STARTCHAR C154
ENCODING 108
SWIDTH 666 0
DWIDTH 16 0
BBX 16 16 0 -3
BITMAP
0000
0FE0
00E0
00E0
00E0
00E0
00E0
00E0
00E0
00E0
00E0
00E0
00E0
0000
0000
0000
ENDCHAR
STARTCHAR C155
ENCODING 109
SWIDTH 666 0
DWIDTH 16 0
BBX 16 16 0 -3
BITMAP
0000
0000
0000
0000
3778
3DCC
39CE
39CE
39CE
39CE
39CE
39CE
39CE
0000
0000
0000
ENDCHAR
STARTCHAR C156
ENCODING 110
SWIDTH 666 0
DWIDTH 16 0
BBX 16 16 0 -3
BITMAP
0000
0000
0000
0000
3BE0
3E38
381C
380E
380E
380E
380E
380E
380E
0000
0000
0000
ENDCHAR
STARTCHAR C157
ENCODING 111
SWIDTH 666 0
DWIDTH 16 0
BBX 16 16 0 -3
BITMAP
0000
0000
0000
0000
03E0
0E38
1C1C
380E
380E
380E
1C1C
0E38
03E0
0000
0000
0000
ENDCHAR
STARTCHAR C160
ENCODING 112
SWIDTH 666 0
DWIDTH 16 0
BBX 16 16 0 -3
BITMAP
0000
0000
0000
0000
3BE0
3E38
381C
380E
380E
380E
381C
3E38
3BE0
3800
3800
3800
ENDCHAR
STARTCHAR C161
ENCODING 113
SWIDTH 666 0
DWIDTH 16 0
BBX 16 16 0 -3
BITMAP
0000
0000
0000
0000
03EE
0E3E
1C1E
380E
380E
380E
1C1E
0E3E
03EE
000E
000E
000E
ENDCHAR
STARTCHAR C162
ENCODING 114
SWIDTH 666 0
DWIDTH 16 0
BBX 16 16 0 -3
BITMAP
0000
0000
0000
0000
3BF8
3E1C
381C
3800
3800
3800
3800
3800
3800
0000
0000
0000
ENDCHAR
STARTCHAR C163
ENCODING 115
SWIDTH 666 0
DWIDTH 16 0
BBX 16 16 0 -3
BITMAP
0000
0000
0000
0000
07FC
1C0E
3800
3C00
1FFC
001E
000E
381C
1FF0
0000
0000
0000
ENDCHAR
STARTCHAR C164
ENCODING 116
SWIDTH 666 0
DWIDTH 16 0
BBX 16 16 0 -3
BITMAP
0000
0180
0380
0380
0FF8
0380
0380
0380
0380
0380
0380
01C0
0078
0000
0000
0000
ENDCHAR
STARTCHAR C165
ENCODING 117
SWIDTH 666 0
DWIDTH 16 0
BBX 16 16 0 -3
BITMAP
0000
0000
0000
0000
380E
380E
380E
380E
380E
380E
1C1E
0E3E
03EE
0000
0000
0000
ENDCHAR
STARTCHAR C166
ENCODING 118
SWIDTH 666 0
DWIDTH 16 0
BBX 16 16 0 -3
BITMAP
0000
0000
0000
0000
380E
380E
1C1C
1C1C
0E38
0770
0770
03E0
01C0
0000
0000
0000
ENDCHAR
STARTCHAR C167
ENCODING 119
SWIDTH 666 0
DWIDTH 16 0
BBX 16 16 0 -3
BITMAP
0000
0000
0000
0000
380E
380E
388E
388E
1DDC
1DDC
1F7C
0F78
0E38
0000
0000
0000
ENDCHAR
STARTCHAR C170
ENCODING 120
SWIDTH 666 0
DWIDTH 16 0
BBX 16 16 0 -3
BITMAP
0000
0000
0000
0000
381C
1C38
0E70
07E0
03C0
07E0
0E70
1C38
381C
0000
0000
0000
ENDCHAR
STARTCHAR C171
ENCODING 121
SWIDTH 666 0
DWIDTH 16 0
BBX 16 16 0 -3
BITMAP
0000
0000
0000
0000
380E
380E
380E
380E
380E
380E
1C1E
0E3E
03EE
000E
381C
0FF0
ENDCHAR
STARTCHAR C172
ENCODING 122
SWIDTH 666 0
DWIDTH 16 0
BBX 16 16 0 -3
BITMAP
0000
0000
0000
0000
1FFC
0038
0070
00E0
01C0
0380
0700
0E00
1FFC
0000
0000
0000
ENDCHAR
STARTCHAR C173
ENCODING 123
SWIDTH 666 0
DWIDTH 16 0
BBX 16 16 0 -3
BITMAP
0000
03E0
0700
0700
0700
0380
0380
1E00
0380
0380
0700
0700
0700
03E0
0000
0000
ENDCHAR
STARTCHAR C174
ENCODING 124
SWIDTH 666 0
DWIDTH 16 0
BBX 16 16 0 -3
BITMAP
0180
03C0
03C0
0180
0180
03C0
03C0
0180
0180
03C0
03C0
0180
0180
03C0
03C0
0180
ENDCHAR
STARTCHAR C175
ENCODING 125
SWIDTH 666 0
DWIDTH 16 0
BBX 16 16 0 -3
BITMAP
0000
07C0
00E0
00E0
00E0
01C0
01C0
0078
01C0
01C0
00E0
00E0
00E0
07C0
0000
0000
ENDCHAR
STARTCHAR C176
ENCODING 126
SWIDTH 666 0
DWIDTH 16 0
BBX 16 16 0 -3
BITMAP
0000
0000
070C
0FCC
19F8
1870
0000
0000
0000
0000
0000
0000
0000
0000
0000
0000
ENDCHAR
STARTCHAR C240
ENCODING 160
SWIDTH 666 0
DWIDTH 16 0
BBX 16 16 0 -3
BITMAP
0000
0000
4004
2008
1010
0820
0440
0280
0100
0280
0440
0820
1010
2008
4004
0000
ENDCHAR
STARTCHAR C241
ENCODING 161
SWIDTH 666 0
DWIDTH 16 0
BBX 16 16 0 -3
BITMAP
0000
0000
0000
0380
0380
07C0
0380
07C0
0FE0
0FE0
0F20
0C20
07C0
0000
0000
0000
ENDCHAR
STARTCHAR C242
ENCODING 162
SWIDTH 666 0
DWIDTH 16 0
BBX 16 16 0 -3
BITMAP
0000
0000
4004
2008
1010
0820
0440
0280
0100
0280
0440
0820
1010
2008
4004
0000
ENDCHAR
STARTCHAR C243
ENCODING 163
SWIDTH 666 0
DWIDTH 16 0
BBX 16 16 0 -3
BITMAP
0000
0000
4004
2008
1010
0820
0440
0280
0100
0280
0440
0820
1010
2008
4004
0000
ENDCHAR
STARTCHAR C244
ENCODING 164
SWIDTH 666 0
DWIDTH 16 0
BBX 16 16 0 -3
BITMAP
0000
0000
0000
0000
0000
00C0
0660
0DB0
03C0
19B0
3C78
1B30
278C
735E
78EC
0000
ENDCHAR
STARTCHAR C245
ENCODING 165
SWIDTH 666 0
DWIDTH 16 0
BBX 16 16 0 -3
BITMAP
0000
1800
1800
1800
3C00
7DF8
7BFC
77FA
7FF6
742A
2956
781A
0A54
0818
0FF0
0000
ENDCHAR
STARTCHAR C246
ENCODING 166
SWIDTH 666 0
DWIDTH 16 0
BBX 16 16 0 -3
BITMAP
0000
0000
4004
2008
1010
0820
0440
0280
0100
0280
0440
0820
1010
2008
4004
0000
ENDCHAR
STARTCHAR C247
ENCODING 167
SWIDTH 666 0
DWIDTH 16 0
BBX 16 16 0 -3
BITMAP
0000
0100
0780
07C0
03C0
0180
3980
3D78
2BB8
03C0
0380
0180
0640
0630
0C30
0000
ENDCHAR
STARTCHAR C250
ENCODING 168
SWIDTH 666 0
DWIDTH 16 0
BBX 16 16 0 -3
BITMAP
0000
0000
0000
0000
0000
0000
0000
0080
63E0
1FFC
0FF4
01C0
03E0
0000
0000
0000
ENDCHAR
STARTCHAR C251
ENCODING 169
SWIDTH 666 0
DWIDTH 16 0
BBX 16 16 0 -3
BITMAP
0000
0000
0000
1000
1800
1C00
0E00
0700
0380
01D0
00E0
01B0
0018
0008
0000
0000
ENDCHAR
STARTCHAR C252
ENCODING 170
SWIDTH 666 0
DWIDTH 16 0
BBX 16 16 0 -3
BITMAP
0000
0000
0000
0100
2108
1010
07C0
0FA0
1FD0
0FA0
0740
0380
0100
0000
0000
0000
ENDCHAR
STARTCHAR C253
ENCODING 171
SWIDTH 666 0
DWIDTH 16 0
BBX 16 16 0 -3
BITMAP
0000
0000
0380
07F0
063C
0CDC
0E7A
1B3A
1C74
3FF4
27E8
20E8
1810
0710
00E0
0000
ENDCHAR
STARTCHAR C254
ENCODING 172
SWIDTH 666 0
DWIDTH 16 0
BBX 16 16 0 -3
BITMAP
0000
0000
4004
2008
1010
0820
0440
0280
0100
0280
0440
0820
1010
2008
4004
0000
ENDCHAR
STARTCHAR C255
ENCODING 173
SWIDTH 666 0
DWIDTH 16 0
BBX 16 16 0 -3
BITMAP
0000
0000
4004
2008
1010
0820
0440
0280
0100
0280
0440
0820
1010
2008
4004
0000
ENDCHAR
STARTCHAR char174
ENCODING 174
SWIDTH 666 0
DWIDTH 16 0
BBX 16 16 0 -3
BITMAP
0000
0000
0000
0000
0000
0000
0000
0100
0080
0000
0000
0000
0000
0000
0000
0000
ENDCHAR
STARTCHAR C257
ENCODING 175
SWIDTH 666 0
DWIDTH 16 0
BBX 16 16 0 -3
BITMAP
0000
0000
0000
001C
0038
0070
00A0
0140
0380
0700
0A00
1C00
3800
0000
0000
0000
ENDCHAR
STARTCHAR C260
ENCODING 176
SWIDTH 666 0
DWIDTH 16 0
BBX 16 16 0 -3
BITMAP
0000
0000
4004
2008
1010
0820
0440
0280
0100
0280
0440
0820
1010
2008
4004
0000
ENDCHAR
STARTCHAR C261
ENCODING 177
SWIDTH 666 0
DWIDTH 16 0
BBX 16 16 0 -3
BITMAP
0000
07C0
0FE0
1FF0
1010
3318
3E38
3C78
38F8
31D8
1010
1FF0
0FE0
07C0
0000
0000
ENDCHAR
STARTCHAR C262
ENCODING 178
SWIDTH 666 0
DWIDTH 16 0
BBX 16 16 0 -3
BITMAP
0000
07C0
0FE0
1C70
1930
3318
3398
37D8
37D8
3398
1930
1C70
0FE0
07C0
0000
0000
ENDCHAR
STARTCHAR C263
ENCODING 179
SWIDTH 666 0
DWIDTH 16 0
BBX 16 16 0 -3
BITMAP
0000
07C0
0EE0
1C70
1830
3EE8
3E98
3838
32F8
2EF8
1830
1C70
0EE0
07C0
0000
0000
ENDCHAR
STARTCHAR C264
ENCODING 180
SWIDTH 666 0
DWIDTH 16 0
BBX 16 16 0 -3
BITMAP
0000
07C0
0FC0
1FD0
1F90
3798
3318
3018
3198
33D8
13F0
17F0
07E0
07C0
0000
0000
ENDCHAR
STARTCHAR C265
ENCODING 181
SWIDTH 666 0
DWIDTH 16 0
BBX 16 16 0 -3
BITMAP
0000
03E0
03F0
0BF8
09F8
19EC
18CC
180C
198C
1BCC
0FC8
0FE8
07E0
03E0
0000
0000
ENDCHAR
STARTCHAR C266
ENCODING 182
SWIDTH 666 0
DWIDTH 16 0
BBX 16 16 0 -3
BITMAP
0000
07C0
0FE0
18F0
19F0
3AF8
3F78
3EF8
3DF8
3EB8
1F30
1E30
0FE0
07C0
0000
0000
ENDCHAR
STARTCHAR C267
ENCODING 183
SWIDTH 666 0
DWIDTH 16 0
BBX 16 16 0 -3
BITMAP
0F00
2198
6E06
684C
2156
4E86
582C
1860
5114
1036
5DEA
6602
2326
3E7C
0C38
0000
ENDCHAR
STARTCHAR C270
ENCODING 184
SWIDTH 666 0
DWIDTH 16 0
BBX 16 16 0 -3
BITMAP
0000
07E0
1FF8
3FFC
3FFC
7FFE
7FFE
7FFE
7FFE
7FFE
7FFE
3FFC
3FFC
1FF8
07E0
0000
ENDCHAR
STARTCHAR C271
ENCODING 185
SWIDTH 666 0
DWIDTH 16 0
BBX 16 16 0 -3
BITMAP
0000
0000
4004
2008
1010
0820
0440
0280
0100
0280
0440
0820
1010
2008
4004
0000
ENDCHAR
STARTCHAR C272
ENCODING 186
SWIDTH 666 0
DWIDTH 16 0
BBX 16 16 0 -3
BITMAP
0000
0000
0000
0000
0000
0000
0380
0FE0
10F0
03F8
1FC8
1780
3F00
3180
0000
0000
ENDCHAR
STARTCHAR C273
ENCODING 187
SWIDTH 666 0
DWIDTH 16 0
BBX 16 16 0 -3
BITMAP
0000
0000
0000
0E00
1B00
3F80
3D80
198C
0398
0318
0718
0630
0660
07E0
03C0
0000
ENDCHAR
STARTCHAR C274
ENCODING 188
SWIDTH 666 0
DWIDTH 16 0
BBX 16 16 0 -3
BITMAP
0000
0000
4004
2008
1010
0820
0440
0280
0100
0280
0440
0820
1010
2008
4004
0000
ENDCHAR
STARTCHAR C275
ENCODING 189
SWIDTH 666 0
DWIDTH 16 0
BBX 16 16 0 -3
BITMAP
0000
0000
0000
0000
0380
07C0
0380
07C0
0C60
0820
0C60
07C0
0000
0000
0000
0000
ENDCHAR
STARTCHAR C276
ENCODING 190
SWIDTH 666 0
DWIDTH 16 0
BBX 16 16 0 -3
BITMAP
0000
0000
4004
2008
1010
0820
0440
0280
0100
0280
0440
0820
1010
2008
4004
0000
ENDCHAR
STARTCHAR C277
ENCODING 191
SWIDTH 666 0
DWIDTH 16 0
BBX 16 16 0 -3
BITMAP
0000
0000
0FD0
1FD8
0FD0
0000
07E0
0560
07E0
07E0
02A0
0FD0
1FD8
0FD0
0000
0000
ENDCHAR
STARTCHAR C300
ENCODING 192
SWIDTH 666 0
DWIDTH 16 0
BBX 16 16 0 -3
BITMAP
0000
0000
4004
2008
1010
0820
0440
0280
0100
0280
0440
0820
1010
2008
4004
0000
ENDCHAR
STARTCHAR C301
ENCODING 193
SWIDTH 666 0
DWIDTH 16 0
BBX 16 16 0 -3
BITMAP
0000
0790
4840
1320
2794
2508
A788
2310
4CC8
9FE4
97A4
9024
4488
2690
4CC8
0000
ENDCHAR
STARTCHAR C302
ENCODING 194
SWIDTH 666 0
DWIDTH 16 0
BBX 16 16 0 -3
BITMAP
0000
0000
4004
2008
1010
0820
0440
0280
0100
0280
0440
0820
1010
2008
4004
0000
ENDCHAR
STARTCHAR C303
ENCODING 195
SWIDTH 666 0
DWIDTH 16 0
BBX 16 16 0 -3
BITMAP
0000
0000
4004
2008
1010
0820
0440
0280
0100
0280
0440
0820
1010
2008
4004
0000
ENDCHAR
STARTCHAR C304
ENCODING 196
SWIDTH 666 0
DWIDTH 16 0
BBX 16 16 0 -3
BITMAP
03C0
05E0
0FE0
0E60
50E0
C1C0
0380
0F00
3FE0
7FF8
7FF8
FFFC
DFEC
CC6C
0C1C
00F8
ENDCHAR
STARTCHAR C305
ENCODING 197
SWIDTH 666 0
DWIDTH 16 0
BBX 16 16 0 -3
BITMAP
0000
0F00
1A80
1F80
39C0
3FC0
2F40
2E40
2640
2F40
2D40
2D40
0D00
1D80
3DC0
0000
ENDCHAR
STARTCHAR C306
ENCODING 198
SWIDTH 666 0
DWIDTH 16 0
BBX 16 16 0 -3
BITMAP
0000
0000
1C70
3FF0
67B8
67F8
3FF0
0FF0
1F60
3F70
37D8
3FF8
1CF8
0000
0000
0000
ENDCHAR
STARTCHAR C307
ENCODING 199
SWIDTH 666 0
DWIDTH 16 0
BBX 16 16 0 -3
BITMAP
0000
0000
0000
0000
0100
0380
07C0
0440
0EE0
0FE0
0BA0
0D60
0FE0
0FE0
0000
0000
ENDCHAR
STARTCHAR C310
ENCODING 200
SWIDTH 666 0
DWIDTH 16 0
BBX 16 16 0 -3
BITMAP
07C0
0FF0
0FF0
0990
0FF0
0660
03C0
0FF0
1FF8
3FFC
27E4
27E4
37EC
376C
0770
1F7C
ENDCHAR
STARTCHAR C311
ENCODING 201
SWIDTH 666 0
DWIDTH 16 0
BBX 16 16 0 -3
BITMAP
0000
0000
4004
2008
1010
0820
0440
0280
0100
0280
0440
0820
1010
2008
4004
0000
ENDCHAR
STARTCHAR C312
ENCODING 202
SWIDTH 666 0
DWIDTH 16 0
BBX 16 16 0 -3
BITMAP
0000
1800
0CE0
2DD0
1B80
1F00
3D80
7BC0
29A0
3718
3BD8
03FC
0EF8
0CC0
1860
0000
ENDCHAR
STARTCHAR C313
ENCODING 203
SWIDTH 666 0
DWIDTH 16 0
BBX 16 16 0 -3
BITMAP
0000
0000
4004
2008
1010
0820
0440
0280
0100
0280
0440
0820
1010
2008
4004
0000
ENDCHAR
STARTCHAR C314
ENCODING 204
SWIDTH 666 0
DWIDTH 16 0
BBX 16 16 0 -3
BITMAP
0000
0000
4004
2008
1010
0820
0440
0280
0100
0280
0440
0820
1010
2008
4004
0000
ENDCHAR
STARTCHAR C315
ENCODING 205
SWIDTH 666 0
DWIDTH 16 0
BBX 16 16 0 -3
BITMAP
0000
0000
4004
2008
1010
0820
0440
0280
0100
0280
0440
0820
1010
2008
4004
0000
ENDCHAR
STARTCHAR C316
ENCODING 206
SWIDTH 666 0
DWIDTH 16 0
BBX 16 16 0 -3
BITMAP
0000
0C00
1E00
1E00
0C00
1200
1E00
1E00
1E00
1E30
1EFC
1FFE
1FC6
0F8C
0618
0020
ENDCHAR
STARTCHAR C317
ENCODING 207
SWIDTH 666 0
DWIDTH 16 0
BBX 16 16 0 -3
BITMAP
0000
0000
4004
2008
1010
0820
0440
0280
0100
0280
0440
0820
1010
2008
4004
0000
ENDCHAR
STARTCHAR C320
ENCODING 208
SWIDTH 666 0
DWIDTH 16 0
BBX 16 16 0 -3
BITMAP
0000
0000
4004
2008
1010
0820
0440
0280
0100
0280
0440
0820
1010
2008
4004
0000
ENDCHAR
STARTCHAR C321
ENCODING 209
SWIDTH 666 0
DWIDTH 16 0
BBX 16 16 0 -3
BITMAP
0000
0000
4004
2008
1010
0820
0440
0280
0100
0280
0440
0820
1010
2008
4004
0000
ENDCHAR
STARTCHAR C322
ENCODING 210
SWIDTH 666 0
DWIDTH 16 0
BBX 16 16 0 -3
BITMAP
0000
0000
4004
2008
1010
0820
0440
0280
0100
0280
0440
0820
1010
2008
4004
0000
ENDCHAR
STARTCHAR C323
ENCODING 211
SWIDTH 666 0
DWIDTH 16 0
BBX 16 16 0 -3
BITMAP
0000
0000
4004
2008
1010
0820
0440
0280
0100
0280
0440
0820
1010
2008
4004
0000
ENDCHAR
STARTCHAR C324
ENCODING 212
SWIDTH 666 0
DWIDTH 16 0
BBX 16 16 0 -3
BITMAP
0000
0FC0
3D60
1FE0
3C70
3C50
3BB0
3470
37F0
1CB0
0DA0
0280
06C0
0EC0
0C40
0000
ENDCHAR
STARTCHAR C325
ENCODING 213
SWIDTH 666 0
DWIDTH 16 0
BBX 16 16 0 -3
BITMAP
0000
0000
4004
2008
1010
0820
0440
0280
0100
0280
0440
0820
1010
2008
4004
0000
ENDCHAR
STARTCHAR C326
ENCODING 214
SWIDTH 666 0
DWIDTH 16 0
BBX 16 16 0 -3
BITMAP
0000
0000
4004
2008
1010
0820
0440
0280
0100
0280
0440
0820
1010
2008
4004
0000
ENDCHAR
STARTCHAR C327
ENCODING 215
SWIDTH 666 0
DWIDTH 16 0
BBX 16 16 0 -3
BITMAP
0000
0000
4004
2008
1010
0820
0440
0280
0100
0280
0440
0820
1010
2008
4004
0000
ENDCHAR
STARTCHAR C330
ENCODING 216
SWIDTH 666 0
DWIDTH 16 0
BBX 16 16 0 -3
BITMAP
0000
0000
4004
2008
1010
0820
0440
0280
0100
0280
0440
0820
1010
2008
4004
0000
ENDCHAR
STARTCHAR C331
ENCODING 217
SWIDTH 666 0
DWIDTH 16 0
BBX 16 16 0 -3
BITMAP
0000
0F00
1A80
3FC0
38C0
3F40
2E40
2F40
3740
0F20
0D30
0D18
0D1C
1D8C
38C0
0000
ENDCHAR
STARTCHAR C332
ENCODING 218
SWIDTH 666 0
DWIDTH 16 0
BBX 16 16 0 -3
BITMAP
0000
0700
0280
0780
0FE0
0FE0
1BB0
33F0
23C0
06C0
06C0
06C0
06C0
06C0
0D80
0000
ENDCHAR
STARTCHAR C333
ENCODING 219
SWIDTH 666 0
DWIDTH 16 0
BBX 16 16 0 -3
BITMAP
0000
17E8
18B8
505A
512A
531A
1328
1158
18A8
0C50
16A8
3B54
699A
300C
0000
0000
ENDCHAR
STARTCHAR C334
ENCODING 220
SWIDTH 666 0
DWIDTH 16 0
BBX 16 16 0 -3
BITMAP
0000
07C0
0820
0920
0BA0
0920
0920
0440
0440
77DC
5014
1FF0
1450
2008
0000
0000
ENDCHAR
STARTCHAR C335
ENCODING 221
SWIDTH 666 0
DWIDTH 16 0
BBX 16 16 0 -3
BITMAP
0000
0000
4004
2008
1010
0820
0440
0280
0100
0280
0440
0820
1010
2008
4004
0000
ENDCHAR
STARTCHAR C336
ENCODING 222
SWIDTH 666 0
DWIDTH 16 0
BBX 16 16 0 -3
BITMAP
0000
0000
4004
2008
1010
0820
0440
0280
0100
0280
0440
0820
1010
2008
4004
0000
ENDCHAR
STARTCHAR C337
ENCODING 223
SWIDTH 666 0
DWIDTH 16 0
BBX 16 16 0 -3
BITMAP
0000
0000
4004
2008
1010
0820
0440
0280
0100
0280
0440
0820
1010
2008
4004
0000
ENDCHAR
STARTCHAR C340
ENCODING 224
SWIDTH 666 0
DWIDTH 16 0
BBX 16 16 0 -3
BITMAP
0000
00C0
01E0
01E0
0DC0
0FD8
07F8
07E0
0380
0380
0F80
1FB0
1FF8
0FF0
07E0
0000
ENDCHAR
STARTCHAR C341
ENCODING 225
SWIDTH 666 0
DWIDTH 16 0
BBX 16 16 0 -3
BITMAP
0000
0000
0000
3830
7C78
7CF0
3DE8
0DDA
07A6
7FD8
57F6
3EAC
00A0
0000
0000
0000
ENDCHAR
STARTCHAR C342
ENCODING 226
SWIDTH 666 0
DWIDTH 16 0
BBX 16 16 0 -3
BITMAP
0000
0000
03C0
0020
2F80
5048
5720
4FA0
69A8
2988
2768
50F0
77FE
1FFC
0000
0000
ENDCHAR
STARTCHAR C343
ENCODING 227
SWIDTH 666 0
DWIDTH 16 0
BBX 16 16 0 -3
BITMAP
0000
0B00
0600
0600
1A00
3600
07E0
0FF0
05F8
00F8
0038
0218
0418
0470
03C0
0000
ENDCHAR
STARTCHAR C344
ENCODING 228
SWIDTH 666 0
DWIDTH 16 0
BBX 16 16 0 -3
BITMAP
0000
0000
0000
1208
1604
3C04
1604
7F84
77FC
67FC
0FFC
0FEC
0B0C
1A08
0608
0000
ENDCHAR
STARTCHAR C345
ENCODING 229
SWIDTH 666 0
DWIDTH 16 0
BBX 16 16 0 -3
BITMAP
0000
07C0
1FF0
11F0
3F18
33F8
3338
3F38
1FF0
1FF0
07C0
0000
0000
0000
0000
0000
ENDCHAR
STARTCHAR C346
ENCODING 230
SWIDTH 666 0
DWIDTH 16 0
BBX 16 16 0 -3
BITMAP
0000
0000
0000
0000
0010
0008
1408
3C08
55F8
7DF8
3BF8
07F8
1B38
0610
0000
0000
ENDCHAR
STARTCHAR C347
ENCODING 231
SWIDTH 666 0
DWIDTH 16 0
BBX 16 16 0 -3
BITMAP
0000
0000
4004
2008
1010
0820
0440
0280
0100
0280
0440
0820
1010
2008
4004
0000
ENDCHAR
STARTCHAR C350
ENCODING 232
SWIDTH 666 0
DWIDTH 16 0
BBX 16 16 0 -3
BITMAP
0000
0000
4004
2008
1010
0820
0440
0280
0100
0280
0440
0820
1010
2008
4004
0000
ENDCHAR
STARTCHAR C351
ENCODING 233
SWIDTH 666 0
DWIDTH 16 0
BBX 16 16 0 -3
BITMAP
0000
0000
4004
2008
1010
0820
0440
0280
0100
0280
0440
0820
1010
2008
4004
0000
ENDCHAR
STARTCHAR C352
ENCODING 234
SWIDTH 666 0
DWIDTH 16 0
BBX 16 16 0 -3
BITMAP
0000
0000
4004
2008
1010
0820
0440
0280
0100
0280
0440
0820
1010
2008
4004
0000
ENDCHAR
STARTCHAR C353
ENCODING 235
SWIDTH 666 0
DWIDTH 16 0
BBX 16 16 0 -3
BITMAP
0000
0000
0000
0440
07C0
0540
07C0
0EE0
1FF0
1FF0
0BA0
0380
0280
06C0
0000
0000
ENDCHAR
STARTCHAR C354
ENCODING 236
SWIDTH 666 0
DWIDTH 16 0
BBX 16 16 0 -3
BITMAP
0000
0000
4004
2008
1010
0820
0440
0280
0100
0280
0440
0820
1010
2008
4004
0000
ENDCHAR
STARTCHAR C355
ENCODING 237
SWIDTH 666 0
DWIDTH 16 0
BBX 16 16 0 -3
BITMAP
0000
0000
4004
2008
1010
0820
0440
0280
0100
0280
0440
0820
1010
2008
4004
0000
ENDCHAR
STARTCHAR C356
ENCODING 238
SWIDTH 666 0
DWIDTH 16 0
BBX 16 16 0 -3
BITMAP
0000
0000
4004
2008
1010
0820
0440
0280
0100
0280
0440
0820
1010
2008
4004
0000
ENDCHAR
STARTCHAR C357
ENCODING 239
SWIDTH 666 0
DWIDTH 16 0
BBX 16 16 0 -3
BITMAP
0000
0000
0100
0380
0380
0100
0EE0
0FA0
0F20
0BA0
0BA0
0280
06C0
0EE0
0000
0000
ENDCHAR
STARTCHAR C360
ENCODING 240
SWIDTH 666 0
DWIDTH 16 0
BBX 16 16 0 -3
BITMAP
3FF0
1AE0
0FC0
0F40
0680
0680
0780
0780
0300
0300
0300
0300
0200
0200
0000
0000
ENDCHAR
STARTCHAR C361
ENCODING 241
SWIDTH 666 0
DWIDTH 16 0
BBX 16 16 0 -3
BITMAP
0000
0000
4004
2008
1010
0820
0440
0280
0100
0280
0440
0820
1010
2008
4004
0000
ENDCHAR
STARTCHAR C362
ENCODING 242
SWIDTH 666 0
DWIDTH 16 0
BBX 16 16 0 -3
BITMAP
0000
0000
4004
2008
1010
0820
0440
0280
0100
0280
0440
0820
1010
2008
4004
0000
ENDCHAR
STARTCHAR C363
ENCODING 243
SWIDTH 666 0
DWIDTH 16 0
BBX 16 16 0 -3
BITMAP
0000
0000
03C0
0E00
3800
5FE0
27C0
0978
00F0
0368
0FA0
0E90
1A40
2800
1000
0000
ENDCHAR
STARTCHAR C364
ENCODING 244
SWIDTH 666 0
DWIDTH 16 0
BBX 16 16 0 -3
BITMAP
0000
0000
4004
2008
1010
0820
0440
0280
0100
0280
0440
0820
1010
2008
4004
0000
ENDCHAR
STARTCHAR C365
ENCODING 245
SWIDTH 666 0
DWIDTH 16 0
BBX 16 16 0 -3
BITMAP
0000
1000
0D80
0700
0D00
1F00
1B00
0700
0FF0
1FF8
17F4
1210
0A50
0250
0210
0000
ENDCHAR
STARTCHAR C366
ENCODING 246
SWIDTH 666 0
DWIDTH 16 0
BBX 16 16 0 -3
BITMAP
0000
0000
09E0
13F0
2648
6DE4
7A30
6BD8
6BAC
37AC
18BC
4F6C
24C8
1F90
0F20
0000
ENDCHAR
STARTCHAR C367
ENCODING 247
SWIDTH 666 0
DWIDTH 16 0
BBX 16 16 0 -3
BITMAP
0000
0000
4004
2008
1010
0820
0440
0280
0100
0280
0440
0820
1010
2008
4004
0000
ENDCHAR
STARTCHAR C370
ENCODING 248
SWIDTH 666 0
DWIDTH 16 0
BBX 16 16 0 -3
BITMAP
0000
0000
4004
2008
1010
0820
0440
0280
0100
0280
0440
0820
1010
2008
4004
0000
ENDCHAR
STARTCHAR C371
ENCODING 249
SWIDTH 666 0
DWIDTH 16 0
BBX 16 16 0 -3
BITMAP
0000
0100
0100
1390
0BA0
07C0
1FF0
7FFC
1FF0
07C0
0BA0
1390
0100
0100
0000
0000
ENDCHAR
STARTCHAR C372
ENCODING 250
SWIDTH 666 0
DWIDTH 16 0
BBX 16 16 0 -3
BITMAP
0000
0000
4004
2008
1010
0820
0440
0280
0100
0280
0440
0820
1010
2008
4004
0000
ENDCHAR
STARTCHAR C373
ENCODING 251
SWIDTH 666 0
DWIDTH 16 0
BBX 16 16 0 -3
BITMAP
0000
0000
4004
2008
1010
0820
0440
0280
0100
0280
0440
0820
1010
2008
4004
0000
ENDCHAR
STARTCHAR C374
ENCODING 252
SWIDTH 666 0
DWIDTH 16 0
BBX 16 16 0 -3
BITMAP
0000
0000
4004
2008
1010
0820
0440
0280
0100
0280
0440
0820
1010
2008
4004
0000
ENDCHAR
STARTCHAR C375
ENCODING 253
SWIDTH 666 0
DWIDTH 16 0
BBX 16 16 0 -3
BITMAP
0000
0000
4004
2008
1010
0820
0440
0280
0100
0280
0440
0820
1010
2008
4004
0000
ENDCHAR
STARTCHAR C376
ENCODING 254
SWIDTH 666 0
DWIDTH 16 0
BBX 16 16 0 -3
BITMAP
0000
0000
4004
2008
1010
0820
0440
0280
0100
0280
0440
0820
1010
2008
4004
0000
ENDCHAR
STARTCHAR C377
ENCODING 255
SWIDTH 666 0
DWIDTH 16 0
BBX 16 16 0 -3
BITMAP
0000
0000
4004
2008
1010
0820
0440
0280
0100
0280
0440
0820
1010
2008
4004
0000
ENDCHAR
ENDFONT
